<?xml version="1.0" standalone="no"?>
<!DOCTYPE svg PUBLIC "-//W3C//DTD SVG 20010904//EN"
 "http://www.w3.org/TR/2001/REC-SVG-20010904/DTD/svg10.dtd">
<svg version="1.0" xmlns="http://www.w3.org/2000/svg"
 width="307.000000pt" height="313.000000pt" viewBox="0 0 307.000000 313.000000"
 preserveAspectRatio="xMidYMid meet">

<g transform="translate(0.000000,313.000000) scale(0.100000,-0.100000)"
fill="#fff" stroke="none">
<path d="M1510 3119 c-10 -6 -67 -8 -160 -4 l-145 7 -65 -31 c-75 -36 -119
-39 -229 -16 -41 9 -87 13 -103 10 -17 -4 -60 -37 -105 -81 -94 -92 -181 -137
-335 -174 -61 -14 -113 -31 -116 -38 -2 -6 21 -22 51 -36 57 -25 94 -64 121
-130 17 -41 22 -106 8 -106 -5 0 -34 27 -64 60 -51 56 -58 60 -98 60 -30 0
-60 -9 -96 -30 -29 -16 -60 -27 -69 -24 -18 7 -18 12 0 44 20 34 19 40 -8 40
-29 0 -67 -39 -67 -69 0 -13 11 -36 24 -52 28 -33 25 -57 -10 -90 -28 -26 -31
-44 -8 -53 34 -13 62 -4 113 34 35 27 60 39 70 34 53 -22 91 -11 91 27 0 13
-7 19 -24 19 -30 0 -42 16 -26 35 21 26 56 17 90 -22 27 -31 31 -42 27 -74 -7
-51 -43 -109 -68 -109 -11 0 -24 11 -31 24 -11 25 -63 54 -75 42 -4 -3 1 -22
10 -41 15 -32 15 -35 0 -51 -14 -14 -31 -15 -114 -9 l-98 7 5 -53 c42 -441
117 -691 282 -943 56 -87 215 -247 300 -305 l63 -42 -21 -33 c-39 -64 -19 -88
32 -39 38 36 52 27 100 -63 39 -73 89 -124 123 -124 34 0 65 -28 65 -60 0 -35
35 -77 73 -86 32 -7 34 1 7 41 -11 17 -20 40 -20 52 0 23 10 28 81 38 l47 7
14 -44 c9 -26 25 -49 41 -58 36 -20 43 -7 17 34 -12 20 -20 43 -18 52 2 14 8
12 36 -11 36 -30 50 -28 32 4 -9 17 -8 22 5 28 40 15 175 -59 183 -100 5 -23
-15 -47 -37 -47 -23 0 -81 -61 -81 -85 0 -10 19 -36 42 -57 40 -37 42 -40 30
-70 -15 -41 -2 -57 32 -38 14 7 32 10 42 6 14 -5 16 -15 11 -65 l-6 -58 25 5
c25 5 26 3 18 -29 -5 -19 -9 -63 -9 -99 0 -54 3 -65 18 -68 16 -3 18 4 15 83
-3 80 -1 88 20 105 19 15 21 22 12 45 -27 70 -3 105 51 79 34 -17 40 -10 33
38 -6 35 -3 41 35 76 22 20 41 44 41 53 0 18 -72 79 -92 79 -21 0 -37 20 -31
39 16 44 118 121 161 121 23 0 24 -3 19 -41 l-5 -41 32 31 c46 45 67 13 26
-39 -25 -32 -25 -40 -1 -40 21 0 71 53 71 76 0 7 11 21 25 30 21 14 30 14 55
4 51 -21 65 -67 30 -97 -21 -19 -27 -43 -10 -43 25 0 79 30 90 50 6 12 9 34 5
49 -7 33 6 46 57 55 42 8 94 60 129 128 42 84 62 94 111 53 16 -14 34 -25 39
-25 17 0 9 32 -16 62 -14 16 -25 33 -25 36 0 4 21 18 48 32 64 34 248 218 309
310 98 147 183 343 233 539 19 74 60 373 60 434 l0 30 -95 -7 c-108 -7 -123 1
-90 56 12 20 14 33 7 40 -15 15 -65 -4 -78 -31 -28 -56 -53 -50 -83 19 -29 67
-27 101 8 139 32 34 71 41 91 16 16 -19 5 -32 -29 -37 -33 -4 -37 -22 -11 -48
15 -15 28 -20 43 -15 57 17 64 16 106 -19 33 -28 52 -36 82 -36 56 0 60 22 15
67 -20 20 -36 42 -36 48 0 7 14 26 30 43 36 39 37 55 5 87 -42 43 -72 25 -44
-27 8 -16 8 -22 -2 -28 -15 -10 -36 -3 -75 25 -28 21 -68 30 -121 26 -36 -2
-91 -58 -105 -104 -15 -54 -23 -63 -43 -47 -21 18 -19 69 7 137 26 71 71 118
126 132 65 18 56 41 -25 70 -38 12 -129 56 -203 97 -233 127 -321 153 -416
120 -66 -22 -85 -21 -166 15 -102 45 -172 55 -271 41 -75 -11 -83 -10 -114 8
-39 23 -43 23 -63 9z m693 -121 c7 -20 -12 -48 -33 -48 -34 0 -50 12 -50 36 0
42 69 51 83 12z m-1265 -11 c3 -21 -2 -29 -20 -36 -31 -12 -58 4 -58 34 0 26
13 35 50 32 19 -2 26 -8 28 -30z m-42 -133 c36 -17 64 -57 83 -116 l12 -37 64
0 c68 1 137 -23 167 -57 26 -30 40 -97 29 -143 -11 -50 -5 -51 71 -16 83 39
159 33 213 -15 11 -10 36 -21 56 -25 l37 -7 3 74 c4 65 8 80 39 123 25 36 52
58 94 79 53 27 68 30 162 30 l103 1 -6 -25 c-3 -14 -10 -33 -14 -42 -5 -9 -9
-60 -9 -112 0 -89 1 -96 20 -96 15 0 20 7 20 24 0 33 36 59 62 45 29 -15 21
-65 -9 -62 -13 2 -23 -1 -23 -6 0 -15 30 -41 46 -41 12 0 12 -4 4 -20 -8 -15
-6 -28 9 -57 43 -84 41 -85 101 15 l55 90 50 -5 c41 -4 55 -1 78 17 15 12 27
30 27 41 0 19 -1 19 -17 4 -16 -16 -17 -16 -30 1 -7 10 -13 21 -13 26 0 17 41
48 65 48 33 0 49 -32 41 -85 -5 -37 -3 -44 14 -48 27 -7 26 -56 -1 -91 -35
-44 -101 -29 -83 19 7 17 40 29 55 19 8 -4 9 -3 5 4 -18 29 -86 -8 -86 -46 0
-9 -25 -53 -55 -96 -30 -44 -55 -84 -55 -89 0 -4 -18 -39 -40 -76 -36 -61 -39
-71 -29 -94 16 -36 -15 -101 -51 -104 -14 -1 -19 0 -12 3 21 10 13 44 -14 56
-21 10 -35 9 -72 -4 -26 -10 -48 -15 -50 -13 -2 2 1 20 8 41 7 20 10 55 6 80
-5 41 -4 44 17 44 12 0 27 4 33 8 15 10 74 98 74 110 0 6 -23 49 -51 97 -45
76 -52 84 -63 69 -7 -9 -18 -14 -24 -10 -14 8 -14 14 -13 -196 0 -92 -3 -160
-9 -163 -6 -3 -10 0 -10 8 0 24 -63 72 -119 93 l-53 19 7 92 c8 97 3 109 -30
73 -18 -20 -18 -20 -36 7 -33 50 -46 48 -53 -10 -14 -119 -2 -159 55 -186 44
-21 40 -34 -13 -44 -48 -9 -78 -37 -78 -73 0 -30 7 -30 30 -2 16 20 21 21 44
10 33 -15 40 -31 27 -64 -13 -35 -59 -45 -101 -23 -34 18 -69 82 -70 127 0 18
-7 29 -20 33 -32 10 -54 49 -40 74 15 29 58 28 69 -1 8 -22 9 -22 14 7 3 17 9
73 13 127 l6 96 -32 17 c-17 9 -34 14 -36 12 -3 -2 -7 -46 -9 -98 l-5 -93 -37
-23 c-24 -14 -54 -23 -80 -23 -40 0 -43 -2 -43 -28 0 -15 7 -37 15 -49 14 -20
12 -23 -21 -48 -20 -15 -41 -41 -46 -58 l-11 -30 -15 29 c-20 39 -63 84 -80
84 -12 0 -11 5 4 21 16 18 19 40 22 153 3 107 1 135 -11 144 -12 10 -16 9 -20
-2 -4 -9 -2 -18 2 -21 5 -3 7 -13 4 -23 -4 -18 -39 -27 -48 -12 -9 15 -60 -6
-72 -30 -6 -13 -24 -30 -40 -38 -69 -36 -80 -74 -40 -145 12 -22 18 -42 12
-44 -61 -21 -115 -86 -115 -138 0 -26 -3 -23 -31 30 -52 101 -86 128 -119 95
-24 -24 -28 -65 -5 -56 9 3 19 -3 25 -14 15 -28 -22 -65 -50 -50 -11 6 -20 15
-20 20 0 6 -8 10 -18 10 -30 0 -55 35 -48 65 9 34 35 44 52 20 13 -18 14 -18
14 2 0 23 54 83 75 83 7 0 15 11 17 25 5 26 -6 40 -59 70 -17 10 -34 27 -36
37 -6 23 -53 41 -89 33 -27 -6 -28 -5 -28 34 0 22 -7 66 -15 98 -19 73 -7 138
33 176 39 36 114 61 162 54 38 -5 40 -4 34 16 -9 30 -24 45 -24 25 0 -21 -14
-30 -34 -22 -22 8 -30 42 -14 61 7 9 13 32 13 52 0 27 5 38 25 48 34 17 65 16
106 -3z m-406 -235 c0 -5 -4 -9 -10 -9 -5 0 -10 6 -10 14 0 8 -7 16 -15 20 -8
3 -15 13 -15 23 1 15 5 13 25 -10 14 -15 25 -32 25 -38z m2111 8 c-8 -8 -11
-5 -11 9 0 27 14 41 18 19 2 -9 -1 -22 -7 -28z m-13 -90 c3 -51 9 -65 53 -123
70 -93 66 -156 -6 -79 -62 65 -98 173 -81 240 11 45 31 23 34 -38z m-2090 -46
c6 -39 -28 -119 -64 -151 -76 -66 -76 -12 0 89 14 18 28 47 31 63 8 33 28 33
33 -1z m-148 -201 c0 -29 -37 -48 -120 -60 -125 -18 -124 -17 -115 -108 29
-326 171 -677 345 -850 161 -161 230 -215 358 -280 166 -85 365 -144 537 -159
40 -3 79 -9 86 -13 21 -13 2 -40 -29 -40 -38 0 -246 38 -307 56 -27 9 -84 24
-125 35 -170 44 -355 160 -516 324 -95 96 -206 251 -248 347 -85 192 -146 449
-149 627 l-2 96 75 6 c41 4 93 13 115 22 59 23 95 22 95 -3z m2523 -6 c38 -8
79 -14 92 -14 68 0 58 -142 -31 -473 -66 -242 -190 -445 -387 -633 -229 -220
-530 -353 -856 -380 -78 -7 -83 -6 -79 12 4 23 45 34 233 64 77 12 171 33 210
47 143 51 308 156 471 300 118 105 269 328 325 483 70 194 120 478 90 513 -6
8 -37 17 -69 21 -64 7 -149 33 -158 47 -3 6 0 17 7 25 12 15 21 15 152 -12z
m-1835 -342 c2 -12 10 -22 18 -22 22 0 29 -49 10 -68 -15 -15 -18 -15 -26 -2
-11 18 -9 33 5 28 6 -2 9 -7 7 -11 -1 -5 2 -6 8 -2 15 9 12 25 -6 32 -22 8
-34 -14 -34 -68 0 -76 10 -109 32 -109 15 0 19 5 15 20 -8 31 28 96 60 108 53
21 107 24 128 8 29 -22 45 -19 42 6 -4 36 29 34 47 -3 9 -18 16 -40 16 -50 0
-23 -19 -34 -33 -20 -6 6 -14 11 -17 11 -8 0 1 -73 11 -85 4 -6 4 -17 -1 -25
-6 -8 -10 -33 -10 -55 0 -57 -19 -87 -60 -98 -46 -12 -117 0 -141 24 -20 20
-20 20 2 38 22 18 21 60 -1 46 -8 -5 -8 -11 0 -20 8 -10 8 -15 0 -20 -23 -14
-40 4 -40 45 0 36 -2 40 -25 40 -21 0 -25 -5 -25 -28 0 -15 5 -33 11 -39 7 -7
3 -21 -15 -48 -14 -21 -26 -42 -26 -46 0 -22 -19 -6 -25 20 -3 16 -13 35 -21
42 -16 13 -20 124 -4 134 6 3 10 13 10 21 0 8 -4 12 -10 9 -6 -4 -10 9 -10 32
0 22 -6 45 -12 52 -11 11 -9 15 6 25 58 36 81 54 78 66 -5 21 7 42 21 38 6 -3
13 -14 15 -26z m592 -17 c7 -8 10 -22 6 -30 -3 -9 0 -15 9 -15 8 0 18 -12 21
-27 13 -50 -33 -82 -48 -33 -5 18 -6 15 -2 -12 3 -21 0 -39 -7 -43 -7 -5 -10
-33 -8 -75 3 -64 2 -70 -23 -90 -16 -12 -30 -35 -34 -56 -7 -39 -24 -29 -24
14 0 13 -11 33 -25 46 -22 21 -24 27 -14 49 20 43 -8 133 -30 98 -4 -7 -6 -47
-3 -89 4 -65 1 -87 -18 -129 -28 -66 -59 -96 -96 -91 -23 2 -30 9 -32 31 -4
32 21 46 49 29 26 -16 28 1 12 78 -17 78 -12 180 11 215 19 29 75 35 95 11 10
-12 17 -9 44 15 17 16 37 29 43 29 6 0 19 9 29 20 10 11 13 20 7 20 -16 0 -15
23 0 38 16 16 23 15 38 -3z m-754 -53 c22 -15 24 -58 4 -97 -17 -32 -20 -59
-20 -155 l0 -117 30 5 c24 3 30 0 35 -21 7 -26 -9 -67 -25 -67 -5 0 -17 -14
-25 -31 -13 -24 -22 -30 -43 -27 -19 2 -27 9 -27 23 0 13 6 20 18 19 26 -2 21
25 -8 38 -29 13 -30 16 -10 42 11 15 15 48 15 125 l0 105 -31 -30 c-47 -45
-53 -60 -39 -110 10 -36 16 -43 31 -39 26 9 25 -24 -1 -58 -11 -14 -20 -32
-20 -41 0 -18 -15 -22 -25 -6 -3 5 -19 7 -35 3 -29 -5 -30 -4 -30 29 0 37 -20
112 -46 174 -15 34 -18 37 -25 19 -4 -11 -8 -46 -8 -77 -1 -46 3 -62 24 -86
30 -36 33 -56 5 -47 -27 9 -60 -12 -60 -37 0 -21 1 -21 13 -4 29 40 80 -2 59
-48 -25 -55 -102 -12 -102 58 0 17 -7 39 -15 49 -19 25 -8 49 18 41 19 -6 20
-3 15 105 -4 97 -7 114 -26 134 -30 32 -28 37 13 37 20 0 53 9 75 20 22 11 41
20 43 20 2 0 17 -34 33 -76 l29 -76 38 41 c32 35 36 44 27 62 -15 27 -8 32 37
33 34 1 63 26 29 26 -23 0 -28 17 -10 34 17 18 24 19 40 8z m1318 -8 c3 -8 2
-23 -4 -33 -6 -12 -5 -22 1 -28 16 -16 2 -50 -23 -56 -26 -7 -38 -1 -38 20 0
11 6 14 21 10 13 -3 19 -1 16 6 -2 7 -19 12 -38 12 -27 0 -35 -5 -43 -26 -5
-14 -6 -39 -2 -55 7 -25 9 -26 17 -11 6 9 19 17 29 17 17 0 20 -7 20 -40 0
-33 -3 -40 -20 -40 -11 0 -20 5 -20 10 0 6 -7 10 -15 10 -11 0 -15 -12 -15
-45 0 -38 4 -47 23 -54 13 -5 30 -5 40 1 18 9 18 10 0 24 -17 14 -17 14 0 28
21 16 47 11 47 -9 0 -7 9 -15 20 -18 26 -7 36 -33 20 -52 -20 -24 -43 -19 -34
7 l6 21 -27 -21 c-37 -29 -86 -28 -162 4 -60 26 -62 28 -48 48 10 14 15 47 15
104 l0 84 -19 -23 c-16 -19 -23 -22 -37 -13 -27 16 -28 33 -2 43 23 10 23 10
1 10 -25 1 -46 -29 -37 -53 3 -9 14 -16 23 -16 14 0 16 -13 16 -84 0 -80 -1
-84 -27 -99 -18 -10 -31 -29 -38 -59 l-12 -43 -15 30 c-9 17 -26 42 -39 57
-21 26 -22 30 -7 59 16 32 12 81 -8 106 -23 27 -29 10 -29 -84 0 -82 -4 -106
-24 -148 -29 -62 -55 -86 -94 -87 -36 -1 -52 8 -52 31 0 36 54 58 66 26 8 -19
24 -9 24 14 0 14 -6 17 -25 13 -35 -6 -55 14 -55 55 0 37 21 53 45 33 12 -10
13 -16 4 -27 -15 -17 -3 -31 13 -15 9 9 9 29 0 84 -12 73 -8 109 17 157 14 26
81 30 101 6 7 -8 16 -15 21 -15 15 0 10 38 -6 44 -8 3 -15 12 -15 20 0 22 31
36 53 25 14 -8 22 -5 39 16 23 29 73 32 73 5 -1 -8 10 -25 22 -37 23 -22 24
-22 42 -4 10 10 20 24 22 30 3 9 16 10 44 3 48 -10 105 2 105 23 0 20 16 19
24 -1z m290 -89 c51 -22 71 -69 57 -136 -6 -26 -8 -61 -6 -76 7 -37 -31 -65
-97 -71 -53 -5 -58 -14 -34 -61 14 -27 14 -29 -15 -50 -17 -13 -35 -37 -41
-53 l-11 -31 -18 36 c-10 19 -30 44 -44 55 -24 19 -24 21 -10 48 15 29 22 205
9 238 -7 17 -54 22 -54 6 0 -5 7 -10 16 -10 9 0 14 -7 12 -17 -2 -10 -12 -18
-23 -18 -24 0 -33 39 -13 62 7 9 13 23 13 32 0 12 8 15 32 14 17 -2 55 8 85
22 62 29 92 31 142 10z m-1062 -493 c-14 -4 -17 -92 -2 -92 6 0 10 -13 10 -30
0 -17 5 -30 13 -31 10 0 10 -2 0 -6 -16 -6 -18 -99 -3 -108 20 -12 9 -26 -17
-23 -27 3 -28 5 -31 67 -2 50 0 67 12 73 21 12 20 25 -3 31 -16 4 -20 16 -23
66 -2 45 1 64 12 74 12 11 18 10 30 -2 11 -11 12 -15 2 -19z m529 13 c5 4 9 1
9 -4 0 -6 -4 -11 -10 -11 -5 0 -10 -20 -10 -45 0 -25 5 -45 10 -45 6 0 10 -7
10 -15 0 -18 -36 -20 -47 -2 -4 6 -10 35 -13 62 -4 42 -2 53 15 67 17 14 21
14 23 2 2 -8 8 -12 13 -9z m-707 -9 c23 5 26 3 26 -19 0 -14 -8 -31 -17 -36
-17 -10 -17 -10 0 -11 21 0 23 -33 3 -50 -8 -6 -25 -10 -38 -8 -21 3 -23 9
-26 72 -3 60 -1 68 12 57 8 -7 25 -9 40 -5z m116 -13 c0 -14 -6 -23 -15 -23
-8 0 -15 5 -15 10 0 6 -4 10 -10 10 -18 0 -11 -18 10 -25 25 -8 37 -50 19 -71
-7 -8 -24 -14 -38 -12 -20 2 -27 9 -29 31 -2 19 1 27 12 27 10 0 16 -9 17 -22
1 -17 2 -19 6 -6 2 10 -5 30 -16 44 -33 42 -28 59 19 59 35 0 40 -3 40 -22z
m212 -43 l1 -45 6 44 c3 25 12 46 20 49 11 4 13 -10 9 -72 -3 -51 -1 -76 6
-77 6 0 6 -3 -1 -6 -16 -6 -18 -99 -3 -108 20 -12 9 -26 -17 -23 -27 3 -28 5
-31 67 -2 50 0 67 12 73 24 14 19 26 -11 30 -27 3 -28 5 -31 71 -3 66 -2 67
18 55 15 -10 20 -24 22 -58z m113 44 c11 4 15 -1 15 -19 0 -26 -24 -35 -33
-12 -3 6 -6 -9 -6 -35 -1 -41 -4 -48 -21 -48 -18 0 -20 7 -20 70 l0 70 25 -16
c14 -9 32 -14 40 -10z m170 10 c25 6 25 6 25 -59 0 -51 -3 -65 -15 -65 -11 0
-15 13 -17 53 l-1 52 -6 -50 c-4 -37 -11 -51 -23 -53 -16 -3 -18 5 -18 68 0
63 2 71 15 60 8 -7 25 -10 40 -6z m-694 -11 c14 4 19 0 19 -14 0 -24 -29 -37
-41 -18 -6 9 -9 -2 -9 -33 0 -36 -4 -48 -15 -48 -12 0 -15 14 -15 65 0 64 1
65 21 54 12 -6 30 -9 40 -6z m359 -50 l0 -61 -37 1 c-32 2 -39 6 -41 25 -2 13
4 32 14 43 16 17 16 19 1 19 -10 0 -17 8 -17 18 0 14 8 18 40 17 l40 0 0 -62z
m270 0 l0 -61 -37 1 c-32 2 -39 6 -41 25 -2 13 4 32 14 43 16 17 16 19 1 19
-10 0 -17 8 -17 18 0 14 8 18 40 17 l40 0 0 -62z m-11 -107 c-12 -13 -12 -96
1 -96 6 0 10 -7 10 -15 0 -22 -50 -20 -52 3 -7 87 -5 117 10 128 19 14 47 -5
31 -20z m80 0 c-12 -13 -12 -96 1 -96 6 0 10 -7 10 -15 0 -20 -46 -20 -54 1
-13 34 -6 117 11 129 19 14 48 -3 32 -19z m-180 -6 c12 0 20 4 16 9 -3 5 -1
12 5 16 6 4 10 -21 10 -69 l0 -76 -40 0 c-38 0 -40 2 -40 31 0 20 8 37 23 49
l22 19 -22 -6 c-21 -5 -23 -2 -23 28 1 30 2 32 14 17 7 -10 23 -18 35 -18z
m-514 10 c13 11 15 3 15 -69 0 -89 -5 -96 -57 -89 l-28 4 25 11 c24 11 24 12
3 12 -22 1 -23 5 -23 71 l0 70 25 -12 c19 -8 28 -8 40 2z m205 -17 c0 -24 -25
-32 -33 -10 -2 6 -8 9 -12 5 -5 -4 4 -17 19 -29 20 -15 26 -29 24 -48 -2 -22
-9 -27 -37 -29 -35 -4 -51 9 -51 41 0 9 7 17 15 17 8 0 15 -9 15 -20 0 -11 5
-20 10 -20 17 0 11 32 -9 54 -10 12 -21 30 -25 41 -5 19 -2 21 39 20 40 0 45
-3 45 -22z m170 0 c0 -14 -6 -23 -15 -23 -8 0 -15 5 -15 10 0 6 -4 10 -10 10
-19 0 -10 -17 16 -28 21 -10 25 -18 22 -45 -2 -27 -8 -33 -31 -35 -33 -4 -57
13 -57 39 0 26 29 24 40 -3 8 -22 9 -22 9 -2 1 11 -8 29 -19 39 -11 10 -20 28
-20 39 0 18 6 21 40 21 35 0 40 -3 40 -22z m394 13 c24 6 26 4 26 -25 0 -18
-5 -31 -12 -31 -10 0 -10 -2 0 -9 8 -4 12 -19 10 -32 -2 -20 -9 -24 -38 -24
l-35 0 -3 69 c-3 60 -1 68 12 57 8 -7 25 -9 40 -5z m-664 -63 l0 -63 -40 0
c-38 0 -40 1 -40 31 0 19 7 37 18 45 16 13 16 13 0 14 -11 0 -18 8 -18 18 0
14 8 18 40 17 l40 0 0 -62z m-440 -163 c18 0 80 -63 80 -80 0 -28 -11 -50 -24
-50 -15 0 -79 66 -95 98 -14 26 -5 46 16 38 8 -3 19 -6 23 -6z m1435 -1 c12
-18 -3 -53 -41 -91 -42 -44 -61 -48 -70 -13 -8 31 16 69 59 95 37 23 43 24 52
9z m-1204 -80 c43 -11 86 -27 96 -34 17 -13 16 -14 -8 -24 -15 -5 -58 -13 -98
-17 -79 -7 -101 2 -101 42 0 12 -5 26 -10 29 -16 10 -2 25 22 25 12 0 57 -9
99 -21z m1064 11 c3 -5 -3 -26 -13 -47 l-18 -38 -64 3 c-80 4 -130 14 -133 27
-7 31 210 84 228 55z m-547 -23 c3 -14 -5 -17 -47 -17 -52 0 -73 12 -45 28 27
15 88 8 92 -11z m-137 -57 c55 -15 87 -73 55 -99 -12 -10 -25 -3 -69 36 -78
68 -73 87 14 63z m253 2 c5 -9 -55 -63 -106 -96 -25 -17 -27 -16 -33 3 -10 32
4 60 38 82 33 19 92 26 101 11z m-136 -154 c20 -20 15 -102 -7 -129 l-20 -24
-22 21 c-37 37 -23 144 19 144 10 0 23 -5 30 -12z m-121 -85 c-4 -20 3 -29 34
-49 44 -27 48 -40 18 -49 -30 -10 -78 13 -94 46 -20 37 -19 45 5 69 25 25 44
16 37 -17z m229 2 c24 -36 11 -73 -31 -91 -44 -18 -71 -18 -79 1 -4 11 5 21
29 32 30 14 35 22 35 50 0 40 22 44 46 8z m-98 -142 c4 -29 -30 -48 -58 -33
-22 12 -27 45 -7 54 28 12 62 1 65 -21z"/>
<path d="M825 2796 c0 -12 14 -39 32 -61 27 -32 33 -36 39 -21 11 28 -18 89
-47 96 -21 6 -25 4 -24 -14z"/>
<path d="M1004 2605 c-24 -37 -17 -221 10 -240 26 -19 54 -3 72 40 18 44 19
42 -15 48 -32 7 -46 34 -36 68 5 16 13 20 31 16 19 -3 26 1 30 20 16 63 -57
101 -92 48z"/>
<path d="M766 2597 c-25 -18 -37 -94 -26 -163 12 -71 32 -104 65 -104 l25 0 0
130 c0 118 -2 130 -19 140 -25 13 -24 13 -45 -3z"/>
<path d="M1738 2573 c-28 -33 -38 -61 -38 -112 0 -46 2 -50 28 -56 67 -14 102
31 87 113 -11 63 -15 72 -39 72 -13 0 -30 -8 -38 -17z"/>
<path d="M1391 2451 c-11 -7 -14 -30 -12 -97 2 -96 17 -134 51 -134 32 0 27
66 -6 101 -20 21 -25 34 -20 54 4 17 12 25 23 23 21 -4 29 27 13 47 -14 17
-29 19 -49 6z"/>
<path d="M1182 1798 c-13 -13 -17 -173 -6 -202 8 -21 50 -21 58 0 3 9 9 41 12
72 l7 57 -21 -19 c-31 -27 -51 -15 -48 31 2 46 13 66 33 59 8 -3 11 -1 8 4 -8
14 -28 13 -43 -2z"/>
<path d="M1215 1730 c4 -6 11 -8 16 -5 14 9 11 15 -7 15 -8 0 -12 -5 -9 -10z"/>
<path d="M860 1470 c0 -6 7 -10 15 -10 8 0 15 2 15 4 0 2 -7 6 -15 10 -8 3
-15 1 -15 -4z"/>
<path d="M2392 1728 c-16 -16 -15 -136 1 -168 7 -14 23 -26 35 -28 19 -3 22 1
22 31 0 22 -6 37 -15 41 -21 8 -35 47 -23 69 5 10 13 15 19 12 15 -10 23 24 9
40 -15 18 -32 19 -48 3z"/>
<path d="M1221 1244 c0 -11 3 -14 6 -6 3 7 2 16 -1 19 -3 4 -6 -2 -5 -13z"/>
<path d="M1222 1200 c0 -14 2 -19 5 -12 2 6 2 18 0 25 -3 6 -5 1 -5 -13z"/>
<path d="M1481 1204 c0 -11 3 -14 6 -6 3 7 2 16 -1 19 -3 4 -6 -2 -5 -13z"/>
<path d="M1751 1204 c0 -11 3 -14 6 -6 3 7 2 16 -1 19 -3 4 -6 -2 -5 -13z"/>
<path d="M1660 1029 c0 -11 5 -17 10 -14 6 3 10 13 10 21 0 8 -4 14 -10 14 -5
0 -10 -9 -10 -21z"/>
<path d="M1133 1050 c0 -25 2 -35 4 -22 2 12 2 32 0 45 -2 12 -4 2 -4 -23z"/>
<path d="M1922 1030 c0 -14 2 -19 5 -12 2 6 2 18 0 25 -3 6 -5 1 -5 -13z"/>
<path d="M1232 1030 c0 -14 2 -19 5 -12 2 6 2 18 0 25 -3 6 -5 1 -5 -13z"/>
</g>
</svg>
